<mxfile host="app.diagrams.net" modified="2024-07-02T13:40:12.079Z" agent="Mozilla/5.0 (Windows NT 10.0; Win64; x64) AppleWebKit/537.36 (KHTML, like Gecko) Chrome/126.0.0.0 Safari/537.36" etag="aKsb5BzjOaYxtgtum_Hb" version="24.6.4" type="device">
  <diagram id="C5RBs43oDa-KdzZeNtuy" name="Page-1">
    <mxGraphModel dx="880" dy="468" grid="1" gridSize="10" guides="1" tooltips="1" connect="1" arrows="1" fold="1" page="1" pageScale="1" pageWidth="827" pageHeight="1169" math="0" shadow="0">
      <root>
        <mxCell id="WIyWlLk6GJQsqaUBKTNV-0" />
        <mxCell id="WIyWlLk6GJQsqaUBKTNV-1" parent="WIyWlLk6GJQsqaUBKTNV-0" />
        <mxCell id="s5HaO3MAj9RBRCdUonvZ-0" value="&lt;font style=&quot;font-size: 18px;&quot;&gt;&lt;b&gt;Start&lt;/b&gt;&lt;/font&gt;" style="strokeWidth=2;html=1;shape=mxgraph.flowchart.terminator;whiteSpace=wrap;" vertex="1" parent="WIyWlLk6GJQsqaUBKTNV-1">
          <mxGeometry x="260" y="90" width="130" height="60" as="geometry" />
        </mxCell>
        <mxCell id="s5HaO3MAj9RBRCdUonvZ-1" value="" style="endArrow=classic;html=1;rounded=0;" edge="1" parent="WIyWlLk6GJQsqaUBKTNV-1">
          <mxGeometry width="50" height="50" relative="1" as="geometry">
            <mxPoint x="324.5" y="150" as="sourcePoint" />
            <mxPoint x="325" y="200" as="targetPoint" />
          </mxGeometry>
        </mxCell>
        <mxCell id="s5HaO3MAj9RBRCdUonvZ-3" value="" style="endArrow=classic;html=1;rounded=0;" edge="1" parent="WIyWlLk6GJQsqaUBKTNV-1">
          <mxGeometry width="50" height="50" relative="1" as="geometry">
            <mxPoint x="324.5" y="290" as="sourcePoint" />
            <mxPoint x="325" y="340" as="targetPoint" />
            <Array as="points">
              <mxPoint x="325" y="310" />
            </Array>
          </mxGeometry>
        </mxCell>
        <mxCell id="s5HaO3MAj9RBRCdUonvZ-10" value="&lt;font style=&quot;font-size: 18px;&quot;&gt;Input side (A,B) , H&lt;/font&gt;" style="shape=parallelogram;html=1;strokeWidth=2;perimeter=parallelogramPerimeter;whiteSpace=wrap;rounded=1;arcSize=12;size=0.23;" vertex="1" parent="WIyWlLk6GJQsqaUBKTNV-1">
          <mxGeometry x="215" y="200" width="220" height="100" as="geometry" />
        </mxCell>
        <mxCell id="s5HaO3MAj9RBRCdUonvZ-12" value="&lt;font style=&quot;font-size: 18px;&quot;&gt;Area = (a + b) / 2 * H&lt;/font&gt;" style="rounded=1;whiteSpace=wrap;html=1;absoluteArcSize=1;arcSize=14;strokeWidth=2;" vertex="1" parent="WIyWlLk6GJQsqaUBKTNV-1">
          <mxGeometry x="215" y="340" width="225" height="100" as="geometry" />
        </mxCell>
        <mxCell id="s5HaO3MAj9RBRCdUonvZ-14" value="" style="endArrow=classic;html=1;rounded=0;" edge="1" parent="WIyWlLk6GJQsqaUBKTNV-1">
          <mxGeometry width="50" height="50" relative="1" as="geometry">
            <mxPoint x="327" y="440" as="sourcePoint" />
            <mxPoint x="327.5" y="490" as="targetPoint" />
          </mxGeometry>
        </mxCell>
        <mxCell id="s5HaO3MAj9RBRCdUonvZ-15" value="&lt;font style=&quot;font-size: 18px;&quot;&gt;Value of&amp;nbsp;&lt;span style=&quot;font-family: Arial; text-align: left; background-color: rgb(255, 255, 255);&quot;&gt;the area&amp;nbsp;&lt;/span&gt;&lt;/font&gt;&lt;div&gt;&lt;font style=&quot;font-size: 18px;&quot;&gt;&lt;span style=&quot;font-family: Arial; text-align: left; background-color: rgb(255, 255, 255);&quot;&gt;of a trapezoid&lt;/span&gt;&lt;/font&gt;&lt;/div&gt;" style="shape=parallelogram;html=1;strokeWidth=2;perimeter=parallelogramPerimeter;whiteSpace=wrap;rounded=1;arcSize=12;size=0.23;" vertex="1" parent="WIyWlLk6GJQsqaUBKTNV-1">
          <mxGeometry x="210" y="490" width="235" height="100" as="geometry" />
        </mxCell>
        <mxCell id="s5HaO3MAj9RBRCdUonvZ-16" value="" style="endArrow=classic;html=1;rounded=0;" edge="1" parent="WIyWlLk6GJQsqaUBKTNV-1">
          <mxGeometry width="50" height="50" relative="1" as="geometry">
            <mxPoint x="320" y="590" as="sourcePoint" />
            <mxPoint x="320.5" y="640" as="targetPoint" />
          </mxGeometry>
        </mxCell>
        <mxCell id="s5HaO3MAj9RBRCdUonvZ-17" value="&lt;font style=&quot;font-size: 18px;&quot;&gt;&lt;b&gt;Finish&lt;/b&gt;&lt;/font&gt;" style="strokeWidth=2;html=1;shape=mxgraph.flowchart.terminator;whiteSpace=wrap;" vertex="1" parent="WIyWlLk6GJQsqaUBKTNV-1">
          <mxGeometry x="260" y="640" width="130" height="60" as="geometry" />
        </mxCell>
      </root>
    </mxGraphModel>
  </diagram>
</mxfile>
